<?xml version="1.0" encoding="utf-8"?>
<!-- Generator: Adobe Illustrator 26.0.0, SVG Export Plug-In . SVG Version: 6.00 Build 0)  -->
<svg version="1.1" id="Layer_1" xmlns="http://www.w3.org/2000/svg" xmlns:xlink="http://www.w3.org/1999/xlink" x="0px" y="0px"
	 viewBox="0 0 500 167.5" style="enable-background:new 0 0 500 167.5;" xml:space="preserve">
<style type="text/css">
	.st0{clip-path:url(#SVGID_00000144326627515788151780000003933850441447708329_);}
	.st1{fill:#8C52FF;}
	.st2{fill:#FFFFFF;}
	.st3{fill:#444444;}
</style>
<g>
	<defs>
		<rect id="SVGID_1_" x="13.5" y="6.2" width="150" height="150"/>
	</defs>
	<clipPath id="SVGID_00000106832573593471719320000001625419397298855095_">
		<use xlink:href="#SVGID_1_"  style="overflow:visible;"/>
	</clipPath>
	<g style="clip-path:url(#SVGID_00000106832573593471719320000001625419397298855095_);">
		<path class="st1" d="M88.5,6.2c-41.4,0-75,33.6-75,75c0,41.4,33.6,75,75,75c41.4,0,75-33.6,75-75C163.5,39.8,129.9,6.2,88.5,6.2"
			/>
	</g>
</g>
<g>
	<g transform="translate(32.946332, 223.917037)">
		<g>
			<path class="st2" d="M57.5-92c10.6,0,20.5-4.3,27.7-11.5c7.3-7.3,11.5-17.1,11.5-27.7c0-10.6-4.3-20.5-11.5-27.9
				c-7.2-7.2-17.1-11.5-27.7-11.5c-3.2,0-6.6,0.7-10.1,2.1c-3.6,1.4-6.2,3.1-7.9,5.1v-24.7c0-3.1-1-6-3-8c-1.9-1.9-4.8-3.1-7.7-3.1
				c-2.9,0-5.7,1.2-7.6,3.1c-1.9,2-3.1,4.8-3.1,8v56.9c0,10.6,4.3,20.5,11.6,27.7C37.1-96.2,46.9-92,57.5-92z M57.5-113.5
				c-4.8,0-9.3-1.9-12.6-5.2c-3.3-3.3-5.3-7.7-5.3-12.6c0-4.8,2-9.3,5.3-12.6c3.2-3.2,7.7-5.2,12.6-5.2c4.8,0,9.3,1.9,12.6,5.2
				c3.3,3.3,5.2,7.7,5.2,12.6c0,4.8-1.9,9.3-5.2,12.6C66.9-115.4,62.4-113.5,57.5-113.5z"/>
		</g>
	</g>
</g>
<g>
	<g transform="translate(136.146418, 201.150925)">
		<g>
			<path class="st3" d="M81-110.5c0,1.7-0.3,3.1-1,4.4c-0.7,1.2-1.6,2.3-2.7,3.1c-1.2,0.8-2.5,1.5-4,1.9c-1.5,0.4-3.2,0.7-4.9,0.7
				H49.5v-39.1h21c1.4,0,2.6,0.3,3.7,0.9c1.1,0.6,2,1.3,2.8,2.3c0.8,0.9,1.4,2,1.8,3.2c0.4,1.2,0.6,2.4,0.6,3.6
				c0,1.9-0.5,3.7-1.4,5.4c-1,1.7-2.4,2.9-4.2,3.7c2.2,0.7,4,1.9,5.3,3.6C80.4-115.3,81-113.1,81-110.5z M73.3-112
				c0-0.7-0.1-1.4-0.4-2c-0.2-0.6-0.6-1.2-1-1.7c-0.4-0.5-0.9-0.9-1.4-1.1c-0.5-0.3-1.1-0.4-1.8-0.4H57.1v10.3h11.3
				c0.7,0,1.3-0.1,1.9-0.4c0.6-0.3,1.1-0.6,1.6-1.1c0.4-0.5,0.8-1,1-1.6C73.2-110.6,73.3-111.3,73.3-112z M57.1-133.1v9.9h10.1
				c1.3,0,2.4-0.4,3.3-1.3c0.9-0.9,1.4-2.1,1.4-3.6c0-1.5-0.4-2.7-1.2-3.6c-0.8-0.9-1.9-1.3-3.1-1.3H57.1z"/>
		</g>
	</g>
</g>
<g>
	<g transform="translate(164.268189, 201.150925)">
		<g>
			<path class="st3" d="M71.5-99.9c-2.3,0-4.5-0.4-6.3-1.2c-1.9-0.8-3.5-1.9-4.8-3.3c-1.3-1.4-2.3-3-3-4.8c-0.7-1.8-1-3.7-1-5.7
				c0-2,0.3-3.9,1-5.7c0.7-1.8,1.7-3.4,3-4.8c1.3-1.4,2.9-2.5,4.8-3.3c1.9-0.8,4-1.2,6.3-1.2c2.3,0,4.4,0.4,6.3,1.2
				c1.9,0.8,3.4,1.9,4.8,3.3c1.3,1.4,2.3,3,3,4.8c0.7,1.8,1,3.7,1,5.7c0,2-0.3,3.9-1,5.7c-0.7,1.8-1.7,3.4-3,4.8
				c-1.3,1.4-2.9,2.5-4.8,3.3C75.9-100.3,73.8-99.9,71.5-99.9z M63.9-114.8c0,1.3,0.2,2.5,0.6,3.5c0.4,1,0.9,2,1.6,2.7
				c0.7,0.8,1.5,1.4,2.4,1.8c0.9,0.4,1.9,0.6,3,0.6c1.1,0,2.1-0.2,3-0.6c0.9-0.4,1.7-1,2.4-1.8c0.7-0.8,1.2-1.7,1.6-2.8
				c0.4-1.1,0.6-2.2,0.6-3.5c0-1.2-0.2-2.4-0.6-3.5c-0.4-1.1-0.9-2-1.6-2.8c-0.7-0.8-1.5-1.4-2.4-1.8c-0.9-0.4-1.9-0.6-3-0.6
				c-1.1,0-2.1,0.2-3,0.7c-0.9,0.4-1.7,1-2.4,1.8c-0.7,0.8-1.2,1.7-1.6,2.8C64.1-117.2,63.9-116.1,63.9-114.8z"/>
		</g>
	</g>
</g>
<g>
	<g transform="translate(189.329649, 201.150925)">
		<g>
			<path class="st3" d="M66.4-140.7h7.4v31c0,1.1,0.3,1.9,0.8,2.5c0.5,0.6,1.2,0.9,2.2,0.9c0.4,0,0.9-0.1,1.5-0.2
				c0.5-0.2,1-0.3,1.5-0.6l1,5.6c-1,0.5-2.1,0.8-3.5,1.1c-1.3,0.3-2.5,0.4-3.6,0.4c-2.3,0-4.1-0.6-5.4-1.8c-1.3-1.2-1.9-3-1.9-5.3
				V-140.7z"/>
		</g>
	</g>
</g>
<g>
	<g transform="translate(202.439359, 201.150925)">
		<g>
			<path class="st3" d="M84.2-99.9c-2.3,0-4.5-0.4-6.3-1.2c-1.9-0.8-3.5-1.9-4.8-3.3c-1.3-1.4-2.3-3-3-4.8c-0.7-1.8-1-3.7-1-5.7
				c0-2,0.3-3.9,1-5.7c0.7-1.8,1.7-3.4,3-4.8c1.3-1.4,2.9-2.5,4.8-3.3c1.9-0.8,4-1.2,6.3-1.2c2.3,0,4.4,0.4,6.3,1.2
				c1.9,0.8,3.4,1.9,4.8,3.3c1.3,1.4,2.3,3,3,4.8c0.7,1.8,1,3.7,1,5.7c0,2-0.3,3.9-1,5.7c-0.7,1.8-1.7,3.4-3,4.8
				c-1.3,1.4-2.9,2.5-4.8,3.3C88.6-100.3,86.5-99.9,84.2-99.9z M76.6-114.8c0,1.3,0.2,2.5,0.6,3.5c0.4,1,0.9,2,1.6,2.7
				c0.7,0.8,1.5,1.4,2.4,1.8c0.9,0.4,1.9,0.6,3,0.6c1.1,0,2.1-0.2,3-0.6c0.9-0.4,1.7-1,2.4-1.8c0.7-0.8,1.2-1.7,1.6-2.8
				c0.4-1.1,0.6-2.2,0.6-3.5c0-1.2-0.2-2.4-0.6-3.5c-0.4-1.1-0.9-2-1.6-2.8c-0.7-0.8-1.5-1.4-2.4-1.8c-0.9-0.4-1.9-0.6-3-0.6
				c-1.1,0-2.1,0.2-3,0.7c-0.9,0.4-1.7,1-2.4,1.8c-0.7,0.8-1.2,1.7-1.6,2.8C76.8-117.2,76.6-116.1,76.6-114.8z"/>
		</g>
	</g>
</g>
<g>
	<g transform="translate(227.50082, 201.150925)">
		<g>
			<path class="st3" d="M79.9-100.4v-39.1h26.3v6.7H87.5v10.1h15.6v6.2H87.5v16.2H79.9z"/>
		</g>
	</g>
</g>
<g>
	<g transform="translate(251.238908, 201.150925)">
		<g>
			<path class="st3" d="M100.5-99.9c-2.3,0-4.5-0.4-6.3-1.2c-1.9-0.8-3.5-1.9-4.8-3.3c-1.3-1.4-2.3-3-3-4.8c-0.7-1.8-1-3.7-1-5.7
				c0-2,0.3-3.9,1-5.7c0.7-1.8,1.7-3.4,3-4.8c1.3-1.4,2.9-2.5,4.8-3.3c1.9-0.8,4-1.2,6.3-1.2c2.3,0,4.4,0.4,6.3,1.2
				c1.9,0.8,3.4,1.9,4.8,3.3c1.3,1.4,2.3,3,3,4.8c0.7,1.8,1,3.7,1,5.7c0,2-0.3,3.9-1,5.7c-0.7,1.8-1.7,3.4-3,4.8
				c-1.3,1.4-2.9,2.5-4.8,3.3C104.9-100.3,102.8-99.9,100.5-99.9z M92.9-114.8c0,1.3,0.2,2.5,0.6,3.5c0.4,1,0.9,2,1.6,2.7
				c0.7,0.8,1.5,1.4,2.4,1.8c0.9,0.4,1.9,0.6,3,0.6c1.1,0,2.1-0.2,3-0.6c0.9-0.4,1.7-1,2.4-1.8c0.7-0.8,1.2-1.7,1.6-2.8
				c0.4-1.1,0.6-2.2,0.6-3.5c0-1.2-0.2-2.4-0.6-3.5c-0.4-1.1-0.9-2-1.6-2.8c-0.7-0.8-1.5-1.4-2.4-1.8c-0.9-0.4-1.9-0.6-3-0.6
				c-1.1,0-2.1,0.2-3,0.7c-0.9,0.4-1.7,1-2.4,1.8c-0.7,0.8-1.2,1.7-1.6,2.8C93.1-117.2,92.9-116.1,92.9-114.8z"/>
		</g>
	</g>
</g>
<g>
	<g transform="translate(276.300369, 201.150925)">
		<g>
			<path class="st3" d="M112.7-122.9c-2.2,0-4.2,0.5-6,1.3c-1.8,0.8-3,2.1-3.8,3.7v17.5h-7.4v-28.9h6.8v6.2c0.5-1,1.1-1.9,1.8-2.7
				c0.7-0.8,1.5-1.5,2.3-2.1c0.8-0.6,1.6-1,2.4-1.4c0.8-0.3,1.6-0.5,2.4-0.5c0.4,0,0.7,0,0.9,0c0.2,0,0.4,0,0.6,0.1V-122.9z"/>
		</g>
	</g>
</g>
<g>
	<g transform="translate(292.304964, 201.150925)">
		<g>
			<path class="st3" d="M145.7-100.4h-7.4v-16.2c0-2.3-0.4-4-1.2-5.1c-0.8-1.1-1.9-1.6-3.3-1.6c-1.5,0-2.9,0.6-4.1,1.7
				c-1.3,1.1-2.2,2.6-2.8,4.4v16.8h-7.4v-16.2c0-2.3-0.4-4-1.2-5.1c-0.8-1.1-1.9-1.6-3.3-1.6c-1.4,0-2.8,0.6-4.1,1.7
				c-1.3,1.1-2.2,2.6-2.8,4.4v16.9h-7.4v-28.9h6.7v5.4c1.1-1.9,2.5-3.3,4.4-4.3c1.9-1,4-1.5,6.4-1.5c2.4,0,4.3,0.6,5.6,1.8
				c1.3,1.2,2.2,2.6,2.5,4.4c1.2-2,2.7-3.5,4.5-4.5c1.8-1.1,3.9-1.6,6.2-1.6c1.8,0,3.2,0.3,4.4,1c1.1,0.7,2,1.5,2.6,2.6
				c0.6,1.1,1.1,2.3,1.3,3.6c0.2,1.4,0.4,2.7,0.4,4.1V-100.4z"/>
		</g>
	</g>
</g>
<g>
	<g transform="translate(330.806972, 201.150925)">
		<g>
			<path class="st3" d="M124.6-99.9c-2.4,0-4.8-0.4-7.1-1.1c-2.3-0.8-4.3-1.9-6-3.3l2.8-4.6c1.8,1.2,3.5,2.2,5.1,2.8
				c1.7,0.6,3.3,1,5,1c1.5,0,2.6-0.3,3.5-0.8c0.8-0.6,1.3-1.3,1.3-2.4c0-1-0.5-1.8-1.5-2.2c-1-0.5-2.6-1-4.8-1.7
				c-1.9-0.5-3.5-1-4.8-1.5c-1.3-0.5-2.4-1-3.2-1.6c-0.8-0.6-1.4-1.3-1.8-2.1c-0.4-0.8-0.5-1.7-0.5-2.9c0-1.5,0.3-2.8,0.9-4
				c0.6-1.2,1.4-2.2,2.4-3c1-0.8,2.2-1.5,3.6-1.9c1.4-0.4,2.9-0.7,4.5-0.7c2.2,0,4.2,0.3,6.1,0.9c1.9,0.6,3.6,1.6,5.2,3l-3,4.5
				c-1.5-1.1-2.9-1.9-4.3-2.4c-1.4-0.5-2.7-0.8-4.1-0.8c-1.2,0-2.3,0.3-3.1,0.8c-0.8,0.5-1.3,1.3-1.3,2.5c0,0.5,0.1,0.9,0.3,1.3
				c0.2,0.3,0.5,0.6,1,0.9c0.4,0.2,1,0.5,1.8,0.7c0.7,0.2,1.6,0.5,2.7,0.8c2,0.5,3.7,1,5.1,1.5c1.4,0.5,2.6,1.1,3.5,1.8
				c0.9,0.7,1.6,1.4,2,2.3c0.4,0.9,0.6,1.9,0.6,3.1c0,2.8-1.1,5.1-3.1,6.7C131-100.7,128.2-99.9,124.6-99.9z"/>
		</g>
	</g>
</g>
</svg>
